  <svg
        width="886"
        height="444"
        viewBox="0 0 886 444"
        fill="none"
        xmlns="http://www.w3.org/2000/svg"
      >
        <g opacity="0.5">
          <path
            fillRule="evenodd"
            clipRule="evenodd"
            d="M367.61 145.338H361.139C356.701 145.338 353.109 148.937 353.109 153.37V166.391C353.109 170.83 349.511 174.424 345.08 174.424H305.657C301.22 174.424 297.627 170.824 297.627 166.391V153.37C297.627 148.931 294.029 145.338 289.598 145.338H217.695C213.258 145.338 209.666 141.738 209.666 137.305V111.486C209.666 109.855 210.161 108.261 211.09 106.92L279.232 8.21667C280.729 6.04245 283.205 4.75 285.843 4.75H325.284C331.695 4.75 335.523 11.8947 331.973 17.2337L284.599 88.4998C281.049 93.8387 284.877 100.983 291.288 100.983C295.726 100.983 299.318 97.3839 299.318 92.9509V83.0823C299.318 78.6433 302.916 75.0498 307.347 75.0498H345.074C349.511 75.0498 353.103 78.6493 353.103 83.0823V92.9509C353.103 97.3899 356.701 100.983 361.133 100.983H367.604C372.042 100.983 375.634 104.583 375.634 109.016V137.305C375.64 141.738 372.042 145.338 367.61 145.338Z"
            fill="#F0F0F0"
          />
          <path
            fillRule="evenodd"
            clipRule="evenodd"
            d="M420.587 167.757C409.038 160.727 399.994 150.544 393.45 137.215C386.911 123.886 383.639 108.008 383.639 89.5814C383.639 71.1609 386.911 55.2831 393.45 41.9539C399.994 28.6247 409.038 18.4421 420.587 11.4122C432.136 4.38218 445.424 0.867188 460.444 0.867188C475.465 0.867188 488.753 4.38218 500.302 11.4122C511.851 18.4421 520.895 28.6247 527.439 41.9539C533.983 55.2831 537.249 71.1609 537.249 89.5814C537.249 108.002 533.977 123.88 527.439 137.215C520.895 150.544 511.851 160.727 500.302 167.757C488.753 174.787 475.465 178.302 460.444 178.302C445.418 178.302 432.13 174.787 420.587 167.757ZM479.824 89.5875C479.824 60.9844 473.364 46.6828 460.444 46.6828C447.519 46.6828 441.059 60.9844 441.059 89.5875C441.059 118.191 447.519 132.492 460.444 132.492C473.364 132.492 479.824 118.191 479.824 89.5875Z"
            fill="#F0F0F0"
          />
          <path
            fillRule="evenodd"
            clipRule="evenodd"
            d="M707.794 145.338H701.322C696.885 145.338 693.293 148.937 693.293 153.37V166.391C693.293 170.83 689.694 174.424 685.263 174.424H645.84C641.403 174.424 637.811 170.824 637.811 166.391V153.37C637.811 148.931 634.213 145.338 629.781 145.338H557.884C553.447 145.338 549.855 141.738 549.855 137.305V111.486C549.855 109.855 550.35 108.261 551.28 106.92L619.422 8.21667C620.919 6.04245 623.394 4.75 626.032 4.75H665.473C671.885 4.75 675.712 11.8947 672.162 17.2337L624.789 88.4998C621.239 93.8387 625.066 100.983 631.478 100.983C635.915 100.983 639.507 97.3839 639.507 92.9509V83.0823C639.507 78.6433 643.105 75.0498 647.537 75.0498H685.263C689.7 75.0498 693.293 78.6493 693.293 83.0823V92.9509C693.293 97.3899 696.891 100.983 701.322 100.983H707.794C712.231 100.983 715.823 104.583 715.823 109.016V137.305C715.829 141.738 712.231 145.338 707.794 145.338Z"
            fill="#F0F0F0"
          />
          <path
            fillRule="evenodd"
            clipRule="evenodd"
            d="M353.767 144.469H347.295C342.858 144.469 339.266 148.068 339.266 152.501V165.516C339.266 169.955 335.668 173.549 331.236 173.549H291.814C287.376 173.549 283.784 169.949 283.784 165.516V152.501C283.784 148.062 280.186 144.469 275.755 144.469H203.852C199.414 144.469 195.822 140.869 195.822 136.436V110.617C195.822 108.986 196.317 107.392 197.247 106.051L265.389 7.34167C266.886 5.16745 269.361 3.875 272 3.875H311.434C317.846 3.875 321.674 11.0197 318.124 16.3587L270.75 87.6248C267.2 92.9637 271.028 100.108 277.439 100.108C281.876 100.108 285.469 96.5089 285.469 92.0759V82.2073C285.469 77.7683 289.067 74.1748 293.498 74.1748H331.224C335.662 74.1748 339.254 77.7743 339.254 82.2073V92.0759C339.254 96.5149 342.852 100.108 347.283 100.108H353.755C358.193 100.108 361.785 103.708 361.785 108.141V136.43C361.797 140.869 358.199 144.469 353.767 144.469Z"
            fill="#41B7E6"
          />
          <path
            fillRule="evenodd"
            clipRule="evenodd"
            d="M406.743 166.89C395.194 159.86 386.151 149.677 379.606 136.348C373.068 123.019 369.796 107.141 369.796 88.7142C369.796 70.2938 373.068 54.4159 379.606 41.0807C386.151 27.7515 395.194 17.5689 406.743 10.5389C418.287 3.51499 431.574 0 446.601 0C461.622 0 474.909 3.51499 486.459 10.545C498.008 17.5749 507.057 27.7575 513.596 41.0867C520.14 54.4159 523.406 70.2938 523.406 88.7203C523.406 107.141 520.134 123.019 513.596 136.354C507.051 149.683 498.008 159.866 486.459 166.896C474.909 173.926 461.622 177.441 446.601 177.441C431.574 177.435 418.287 173.92 406.743 166.89ZM465.986 88.7142C465.986 60.1112 459.527 45.8096 446.601 45.8096C433.675 45.8096 427.216 60.1112 427.216 88.7142C427.216 117.317 433.675 131.619 446.601 131.619C459.521 131.619 465.986 117.317 465.986 88.7142Z"
            fill="#41B7E6"
          />
          <path
            fillRule="evenodd"
            clipRule="evenodd"
            d="M693.957 144.47H687.485C683.048 144.47 679.455 148.07 679.455 152.503V165.518C679.455 169.957 675.857 173.551 671.426 173.551H632.003C627.566 173.551 623.974 169.951 623.974 165.518V152.503C623.974 148.064 620.375 144.47 615.944 144.47H544.041C539.604 144.47 536.012 140.871 536.012 136.438V110.619C536.012 108.988 536.507 107.394 537.437 106.053L605.584 7.34949C607.082 5.17527 609.551 3.88281 612.189 3.88281H651.63C658.041 3.88281 661.869 11.0275 658.319 16.3665L610.945 87.6326C607.395 92.9715 611.223 100.116 617.635 100.116C622.072 100.116 625.664 96.5167 625.664 92.0837V82.2152C625.664 77.7761 629.262 74.1826 633.693 74.1826H671.42C675.857 74.1826 679.449 77.7822 679.449 82.2152V92.0837C679.449 96.5227 683.048 100.116 687.479 100.116H693.951C698.388 100.116 701.98 103.716 701.98 108.149V136.438C701.986 140.871 698.388 144.47 693.957 144.47Z"
            fill="#41B7E6"
          />
          <path
            fillRule="evenodd"
            clipRule="evenodd"
            d="M74.505 277.898C99.354 277.898 119.905 269.926 136.803 253.836C157.021 234.589 168.721 207.236 180.041 180.783C192.834 150.881 204.914 122.634 226.98 115.568C236.7 112.458 245.545 113.503 254.015 118.775C291.246 141.955 305.355 234.226 305.494 235.156L318.075 233.284C317.478 229.25 302.904 134.224 260.734 107.97C249.07 100.711 236.41 99.189 223.104 103.453C195.508 112.289 182.317 143.132 168.353 175.782C146.649 226.514 124.215 278.985 46.106 261.833L8.31925 249.603C4.98068 248.522 1.39459 250.352 0.31393 253.698C-0.766728 257.043 1.06858 260.631 4.40715 261.706L43.0633 274.19C54.2381 276.654 64.7066 277.898 74.505 277.898Z"
            fill="#442F86"
          />
          <path
            fillRule="evenodd"
            clipRule="evenodd"
            d="M289.453 340.742L275.918 275.086C271.245 252.414 284.442 229.874 306.496 222.863C331.17 215.023 357.371 229.476 363.91 254.534L380.524 318.22L289.453 340.742Z"
            fill="url(#paint0_linear_4709_28434)"
          />
          <path
            fillRule="evenodd"
            clipRule="evenodd"
            d="M289.483 342.48C290.938 348.519 312.763 348.447 338.234 342.305C363.698 336.169 383.168 326.294 381.713 320.254C380.258 314.215 358.434 314.287 332.969 320.43C307.492 326.566 288.028 336.44 289.483 342.48Z"
            fill="#9186DD"
          />
          <path
            fillRule="evenodd"
            clipRule="evenodd"
            d="M344.47 324.664C344.102 326.705 347.748 329.061 352.608 329.937C357.468 330.812 361.706 329.864 362.068 327.823C362.437 325.781 358.79 323.426 353.93 322.55C349.07 321.681 344.838 322.623 344.47 324.664Z"
            fill="#442F86"
          />
          <path
            fillRule="evenodd"
            clipRule="evenodd"
            d="M312.376 334.513C312.008 336.554 315.654 338.91 320.514 339.786C325.374 340.661 329.612 339.713 329.975 337.678C330.343 335.636 326.696 333.281 321.837 332.405C316.983 331.53 312.744 332.472 312.376 334.513Z"
            fill="#442F86"
          />
          <path
            fillRule="evenodd"
            clipRule="evenodd"
            d="M330.24 230.562C330.24 230.562 349.879 237.707 356.128 258.242C362.376 278.782 367.731 305.12 367.731 305.12L349.879 305.567L330.24 230.562Z"
            fill="#BBD1F5"
          />
          <path
            fillRule="evenodd"
            clipRule="evenodd"
            d="M312.944 207.289L303.459 223.861L315.956 220.962L312.944 207.289Z"
            fill="#442F86"
          />
          <path
            fillRule="evenodd"
            clipRule="evenodd"
            d="M886 189.953L880.941 201.198C880.059 200.806 859.183 191.112 840.009 156.977C834.466 147.108 825.966 135.567 816.946 136.63C810.475 137.391 793.323 146.589 773.811 215.276C752.536 290.184 707.033 339.128 638.572 360.75C594.259 374.743 539.465 344.878 537.153 343.598L543.118 332.805C543.806 333.186 595.695 361.354 634.859 348.991C699.119 328.698 741.88 282.575 761.954 211.912C778.013 155.377 795.527 126.749 815.504 124.388C828.158 122.89 840.021 131.829 850.761 150.944C867.961 181.57 885.819 189.868 886 189.953Z"
            fill="#442F86"
          />
          <path
            fillRule="evenodd"
            clipRule="evenodd"
            d="M428.713 287.923L461.187 311.465C463.898 313.434 464.508 317.226 462.539 319.944C460.571 322.662 456.78 323.266 454.063 321.297L421.589 297.755C418.872 295.786 418.269 291.993 420.237 289.276C422.205 286.558 425.996 285.954 428.713 287.923Z"
            fill="#442F86"
          />
          <path
            fillRule="evenodd"
            clipRule="evenodd"
            d="M453.761 251.856L486.241 275.398C488.958 277.367 489.562 281.16 487.594 283.877C485.625 286.595 481.834 287.199 479.117 285.23L446.643 261.688C443.927 259.719 443.323 255.927 445.291 253.209C447.253 250.497 451.05 249.893 453.761 251.856Z"
            fill="#442F86"
          />
          <path
            fillRule="evenodd"
            clipRule="evenodd"
            d="M567.394 345.544L547.235 348.552L552.814 337.312L571.867 344.82L567.394 345.544Z"
            fill="#442F86"
          />
          <path
            fillRule="evenodd"
            clipRule="evenodd"
            d="M431.182 321.606L487.364 358.145C506.768 370.761 532.559 366.679 547.12 348.687C563.415 328.557 559.509 298.879 538.56 283.66L485.336 244.977L431.182 321.606Z"
            fill="url(#paint1_linear_4709_28434)"
          />
          <path
            fillRule="evenodd"
            clipRule="evenodd"
            d="M450.018 324.29L462.95 306.781L529.305 354.596C529.305 354.596 513.403 362.52 495.092 353.618C476.787 344.715 450.018 324.29 450.018 324.29Z"
            fill="#BBD1F5"
          />
          <path
            fillRule="evenodd"
            clipRule="evenodd"
            d="M233.211 436.403C241.204 436.403 245.086 432.405 245.086 427.73C245.086 417.451 228.815 421.02 228.815 415.851C228.815 414.087 230.295 412.644 234.134 412.644C236.616 412.644 239.29 413.362 241.892 414.842L243.89 409.92C241.294 408.277 237.69 407.438 234.176 407.438C226.219 407.438 222.38 411.399 222.38 416.165C222.38 426.565 238.65 422.965 238.65 428.201C238.65 429.917 237.092 431.197 233.253 431.197C229.896 431.197 226.376 429.995 224.016 428.286L221.818 433.16C224.294 435.08 228.773 436.403 233.211 436.403Z"
            fill="#195771"
          />
          <path
            fillRule="evenodd"
            clipRule="evenodd"
            d="M259.315 436.239C266.149 436.239 271.112 431.637 271.112 425.162C271.112 418.682 266.155 414.086 259.315 414.086C252.481 414.086 247.482 418.688 247.482 425.162C247.482 431.643 252.481 436.239 259.315 436.239ZM259.315 431.117C256.194 431.117 253.797 428.877 253.797 425.156C253.797 421.436 256.194 419.195 259.315 419.195C262.431 419.195 264.791 421.436 264.791 425.156C264.791 428.883 262.437 431.117 259.315 431.117Z"
            fill="#195771"
          />
          <path
            fillRule="evenodd"
            clipRule="evenodd"
            d="M281.224 417.237V414.398H275.266V435.917H281.502V425.759C281.502 421.64 283.778 419.761 287.219 419.761C287.702 419.761 288.101 419.804 288.62 419.84V414.078C285.305 414.078 282.746 415.159 281.224 417.237Z"
            fill="#195771"
          />
          <path
            fillRule="evenodd"
            clipRule="evenodd"
            d="M298.298 417.237V414.398H292.339V435.917H298.575V425.759C298.575 421.64 300.851 419.761 304.292 419.761C304.769 419.761 305.174 419.804 305.693 419.84V414.078C302.379 414.078 299.819 415.159 298.298 417.237Z"
            fill="#195771"
          />
          <path
            fillRule="evenodd"
            clipRule="evenodd"
            d="M325.525 414.398L319.446 428.996L313.409 414.398H306.973L316.288 436.074L316.21 436.273C315.371 438.194 314.411 438.955 312.69 438.955C311.453 438.955 310.13 438.436 309.171 437.596L306.895 442.035C308.295 443.273 310.692 443.992 312.889 443.992C316.765 443.992 319.724 442.434 321.806 437.234L331.52 414.398H325.525Z"
            fill="#195771"
          />
          <path
            fillRule="evenodd"
            clipRule="evenodd"
            d="M335.203 428.477C333.005 428.477 331.327 429.999 331.327 432.318C331.327 433.96 332.166 435.199 333.488 435.718L331.732 442.077H335.692L337.968 436.316C338.886 434.117 339.049 433.356 339.049 432.318C339.037 430.041 337.437 428.477 335.203 428.477Z"
            fill="#195771"
          />
          <path
            fillRule="evenodd"
            clipRule="evenodd"
            d="M367.146 407.922H355.029V435.921H361.507V428.203H367.146C374.62 428.203 379.299 424.325 379.299 418.086C379.299 411.805 374.62 407.922 367.146 407.922ZM366.784 422.924H361.507V413.206H366.784C370.744 413.206 372.742 415.006 372.742 418.086C372.742 421.124 370.744 422.924 366.784 422.924Z"
            fill="#195771"
          />
          <path
            fillRule="evenodd"
            clipRule="evenodd"
            d="M391.934 414.078C388.493 414.078 385.016 414.996 382.661 416.675L384.901 421.036C386.459 419.798 388.819 419.037 391.101 419.037C394.458 419.037 396.058 420.595 396.058 423.276H391.101C384.545 423.276 381.864 425.916 381.864 429.714C381.864 433.435 384.865 436.237 389.9 436.237C393.057 436.237 395.297 435.198 396.456 433.235V435.917H402.294V423.639C402.288 417.122 398.491 414.078 391.934 414.078ZM391.451 432.04C389.254 432.04 387.932 431.001 387.932 429.443C387.932 427.999 388.849 426.924 391.771 426.924H396.052V429.123C395.333 431.079 393.534 432.04 391.451 432.04Z"
            fill="#195771"
          />
          <path
            fillRule="evenodd"
            clipRule="evenodd"
            d="M424.438 414.398V417.158C422.796 415.081 420.321 414.078 417.321 414.078C411.362 414.078 406.568 418.197 406.568 424.478C406.568 430.759 411.368 434.878 417.321 434.878C420.122 434.878 422.476 433.996 424.118 432.197V433.115C424.118 436.992 422.199 438.991 417.804 438.991C415.045 438.991 412.044 438.031 410.209 436.551L407.727 441.032C410.245 442.989 414.205 443.992 418.281 443.992C426.038 443.992 430.355 440.314 430.355 432.311V414.392H424.438V414.398ZM418.558 429.757C415.28 429.757 412.883 427.637 412.883 424.478C412.883 421.32 415.28 419.2 418.558 419.2C421.836 419.2 424.197 421.32 424.197 424.478C424.197 427.637 421.836 429.757 418.558 429.757Z"
            fill="#195771"
          />
          <path
            fillRule="evenodd"
            clipRule="evenodd"
            d="M457.22 425.239C457.22 418.318 452.342 414.078 446.027 414.078C439.471 414.078 434.551 418.716 434.551 425.155C434.551 431.556 439.387 436.231 446.824 436.231C450.7 436.231 453.701 435.029 455.699 432.752L452.379 429.153C450.9 430.554 449.263 431.23 446.981 431.23C443.703 431.23 441.421 429.594 440.823 426.912H457.094C457.142 426.399 457.22 425.716 457.22 425.239ZM446.07 418.801C448.871 418.801 450.906 420.559 451.346 423.282H440.751C441.192 420.516 443.226 418.801 446.07 418.801Z"
            fill="#195771"
          />
          <path
            fillRule="evenodd"
            clipRule="evenodd"
            d="M492.405 407.922V424.923L478.49 407.922H473.135V435.921H479.534V418.926L493.486 435.921H498.805V407.922H492.405Z"
            fill="#195771"
          />
          <path
            fillRule="evenodd"
            clipRule="evenodd"
            d="M515.232 436.239C522.066 436.239 527.028 431.637 527.028 425.162C527.028 418.682 522.072 414.086 515.232 414.086C508.398 414.086 503.399 418.688 503.399 425.162C503.399 431.643 508.398 436.239 515.232 436.239ZM515.232 431.117C512.111 431.117 509.714 428.877 509.714 425.156C509.714 421.436 512.111 419.195 515.232 419.195C518.347 419.195 520.708 421.436 520.708 425.156C520.714 428.883 518.353 431.117 515.232 431.117Z"
            fill="#195771"
          />
          <path
            fillRule="evenodd"
            clipRule="evenodd"
            d="M543.383 430.479C542.701 430.998 541.783 431.282 540.866 431.282C539.187 431.282 538.185 430.279 538.185 428.443V419.686H543.546V414.885H538.185V409.648H531.949V414.885H528.628V419.686H531.949V428.528C531.949 433.649 534.907 436.246 539.984 436.246C541.904 436.246 543.782 435.806 545.062 434.888L543.383 430.479Z"
            fill="#195771"
          />
          <path
            fillRule="evenodd"
            clipRule="evenodd"
            d="M581.484 413.122V407.922H560.336V435.921H566.808V425.72H579.764V420.52H566.808V413.122H581.484Z"
            fill="#195771"
          />
          <path
            fillRule="evenodd"
            clipRule="evenodd"
            d="M595.116 436.239C601.95 436.239 606.913 431.637 606.913 425.162C606.913 418.682 601.956 414.086 595.116 414.086C588.282 414.086 583.283 418.688 583.283 425.162C583.283 431.643 588.282 436.239 595.116 436.239ZM595.116 431.117C591.995 431.117 589.598 428.877 589.598 425.156C589.598 421.436 591.995 419.195 595.116 419.195C598.231 419.195 600.592 421.436 600.592 425.156C600.592 428.883 598.237 431.117 595.116 431.117Z"
            fill="#195771"
          />
          <path
            fillRule="evenodd"
            clipRule="evenodd"
            d="M626.503 414.398V425.04C626.503 429.002 624.427 430.838 621.547 430.838C618.788 430.838 617.188 429.237 617.188 425.638V414.398H610.952V426.556C610.952 433.193 614.749 436.237 620.146 436.237C622.785 436.237 625.181 435.235 626.823 433.356V435.917H632.74V414.398H626.503Z"
            fill="#195771"
          />
          <path
            fillRule="evenodd"
            clipRule="evenodd"
            d="M651.612 414.078C648.696 414.078 646.173 415.081 644.494 416.917V414.398H638.536V435.917H644.772V425.275C644.772 421.313 646.933 419.477 649.928 419.477C652.687 419.477 654.287 421.078 654.287 424.557V435.917H660.523V423.596C660.523 417.037 656.689 414.078 651.612 414.078Z"
            fill="#195771"
          />
          <path
            fillRule="evenodd"
            clipRule="evenodd"
            d="M682.076 406.24V416.677C680.518 414.919 678.278 414.08 675.64 414.08C669.561 414.08 664.888 418.398 664.888 425.156C664.888 431.914 669.567 436.233 675.64 436.233C678.52 436.233 680.796 435.315 682.359 433.43V435.912H688.318V406.234H682.076V406.24ZM676.721 431.117C673.599 431.117 671.203 428.876 671.203 425.156C671.203 421.436 673.599 419.195 676.721 419.195C679.8 419.195 682.196 421.436 682.196 425.156C682.196 428.883 679.794 431.117 676.721 431.117Z"
            fill="#195771"
          />
        </g>
        <defs>
          <linearGradient
            id="paint0_linear_4709_28434"
            x1="373.687"
            y1="264.242"
            x2="271.612"
            y2="287.799"
            gradientUnits="userSpaceOnUse"
          >
            <stop stopColor="#60B0E2" />
            <stop offset="1" stopColor="#916EB0" />
          </linearGradient>
          <linearGradient
            id="paint1_linear_4709_28434"
            x1="480.188"
            y1="361.611"
            x2="526.185"
            y2="241.83"
            gradientUnits="userSpaceOnUse"
          >
            <stop stopColor="#60B0E2" />
            <stop offset="1" stopColor="#916EB0" />
          </linearGradient>
        </defs>
      </svg>